<svg xmlns="http://www.w3.org/2000/svg" xmlns:xlink="http://www.w3.org/1999/xlink" width="1000" height="200" viewBox="0 0 1000 200">
  <defs>
    <style>
      .cls-1 {
        fill: #fff;
      }

      .cls-1, .cls-2, .cls-3 {
        fill-rule: evenodd;
      }

      .cls-2 {
        fill: #aa8cef;
        filter: url(#filter);
      }

      .cls-3 {
        fill: url(#linear-gradient);
        filter: url(#filter-2);
      }
    </style>
    <filter id="filter" x="159.344" y="16.625" width="628.125" height="111.719" filterUnits="userSpaceOnUse">
      <feFlood result="flood" flood-color="#fff"/>
      <feComposite result="composite" operator="in" in2="SourceGraphic"/>
      <feBlend result="blend" in2="SourceGraphic"/>
    </filter>
    <linearGradient id="linear-gradient" x1="582.797" y1="37.656" x2="582.797" y2="14.781" gradientUnits="userSpaceOnUse">
      <stop offset="0" stop-color="#0c2442"/>
      <stop offset="1" stop-color="#4f7492"/>
    </linearGradient>
    <filter id="filter-2" x="571.906" y="14.781" width="21.782" height="22.875" filterUnits="userSpaceOnUse">
      <feFlood result="flood" flood-color="#f6f3f3"/>
      <feComposite result="composite" operator="in" in2="SourceGraphic"/>
      <feBlend result="blend" in2="SourceGraphic"/>
    </filter>
  </defs>
  <path id="Solutions" class="cls-1" d="M520.8,164.684v-5.429a4.66,4.66,0,0,1,4.654-4.654h29.476a1.372,1.372,0,0,0,1.552-1.552V148.4a1.371,1.371,0,0,0-1.552-1.551H525.451a12.4,12.4,0,0,0-12.411,12.411V170.89a1.371,1.371,0,0,0,1.552,1.551h34.13v5.43a4.66,4.66,0,0,1-4.654,4.654H514.592a1.372,1.372,0,0,0-1.552,1.552v4.654a1.371,1.371,0,0,0,1.552,1.551h29.476a12.394,12.394,0,0,0,12.411-12.411V166.236a1.372,1.372,0,0,0-1.552-1.552H520.8Zm68.555,20.6a17.081,17.081,0,1,0-12.07,5A16.446,16.446,0,0,0,589.352,185.287Zm-12.07-2.762a9.321,9.321,0,1,1,6.578-2.73,8.966,8.966,0,0,1-6.578,2.73h0Zm28.56-34.13a1.371,1.371,0,0,0-1.551-1.551h-4.654a1.371,1.371,0,0,0-1.552,1.551v40.336a1.371,1.371,0,0,0,1.552,1.551h4.654a1.371,1.371,0,0,0,1.551-1.551V148.4Zm36.317,41.887a1.372,1.372,0,0,0,1.552-1.551V157.7a1.372,1.372,0,0,0-1.552-1.551h-4.654a1.371,1.371,0,0,0-1.551,1.551v24.822H621.991a4.66,4.66,0,0,1-4.654-4.654V157.7a1.371,1.371,0,0,0-1.551-1.551h-4.654a1.371,1.371,0,0,0-1.552,1.551v20.168a12.4,12.4,0,0,0,12.411,12.411h20.168Zm20.8-26.373a1.372,1.372,0,0,0,1.552-1.552V157.7a1.371,1.371,0,0,0-1.552-1.551h-7.756V148.4a1.372,1.372,0,0,0-1.552-1.551H649a1.371,1.371,0,0,0-1.551,1.551v29.476a12.394,12.394,0,0,0,12.411,12.411h3.1a1.371,1.371,0,0,0,1.552-1.551v-4.654a1.372,1.372,0,0,0-1.552-1.552h-3.1a4.66,4.66,0,0,1-4.654-4.654V163.909h7.756Zm13.526-2.083c0-1.034-1.144-3.268-2.178-3.268h-4.358c-1.034,0-2.178,2.234-2.178,3.268V189.06c0,1.034,1,1.222,2.029,1.222h4.655c1.034,0,2.03-.188,2.03-1.222V161.826ZM676.009,148.4a1.371,1.371,0,0,0-1.551-1.551H669.8a1.371,1.371,0,0,0-1.551,1.551v4.654A1.371,1.371,0,0,0,669.8,154.6h4.655a1.371,1.371,0,0,0,1.551-1.552V148.4Zm32.873,36.892a17.079,17.079,0,1,0-12.07,5A16.446,16.446,0,0,0,708.882,185.287Zm-12.07-2.762a9.321,9.321,0,1,1,6.578-2.73,8.966,8.966,0,0,1-6.578,2.73h0Zm22.355-26.373a1.371,1.371,0,0,0-1.551,1.551v31.028a1.371,1.371,0,0,0,1.551,1.551h4.654a1.371,1.371,0,0,0,1.551-1.551V163.909h13.963a4.66,4.66,0,0,1,4.654,4.654v20.168a1.371,1.371,0,0,0,1.551,1.551h4.654a1.372,1.372,0,0,0,1.552-1.551V168.563a12.394,12.394,0,0,0-12.411-12.411H719.167Zm36.317,19.392a1.371,1.371,0,0,0,1.551,1.551h24.822v0.776a4.66,4.66,0,0,1-4.654,4.654H757.035a1.372,1.372,0,0,0-1.551,1.552v4.654a1.371,1.371,0,0,0,1.551,1.551H777.2a12.394,12.394,0,0,0,12.411-12.411V170.89a1.372,1.372,0,0,0-1.551-1.552H763.241v-0.775a4.66,4.66,0,0,1,4.654-4.654h20.168a1.371,1.371,0,0,0,1.551-1.552V157.7a1.371,1.371,0,0,0-1.551-1.551H767.9a12.394,12.394,0,0,0-12.411,12.411v6.981Z"/>
  <path id="Rhodion_copy" data-name="Rhodion copy" class="cls-2" d="M196.094,65.966c0.061,0.214.009,16.33,0,16.34-0.038.041-.027-0.027,0,0,0.473,0.465,46.9,42.03,46.929,42.035q4.069,3.992,8.059,3.99h19.946l-44.52-45.877h12.606a30.758,30.758,0,0,0,22.579-9.335,30.758,30.758,0,0,0,9.335-22.579V48.545a30.76,30.76,0,0,0-9.335-22.579,30.758,30.758,0,0,0-22.579-9.335h-75.8q-3.99,0-3.989,3.989V124.34q0,3.992,3.989,3.99h11.968q3.988,0,3.989-3.99V36.577h59.839a11.986,11.986,0,0,1,11.968,11.968v2.473A11,11,0,0,1,247.571,59a11.526,11.526,0,0,1-8.457,3.511s-25.815.131-38.663,0.19C198.13,62.708,197.353,63.665,196.094,65.966ZM300.587,20.62q0-3.989-3.99-3.989H284.63q-3.991,0-3.99,3.989V128.33h19.947V60.513h35.9A11.986,11.986,0,0,1,348.458,72.48v51.86q0,3.992,3.989,3.99h11.968q3.988,0,3.989-3.99V72.48A31.871,31.871,0,0,0,336.49,40.566h-35.9V20.62Zm152.347,94.864A42.287,42.287,0,0,0,465.78,84.448a42.289,42.289,0,0,0-12.846-31.036,43.916,43.916,0,0,0-62.072,0,42.282,42.282,0,0,0-12.846,31.036,42.279,42.279,0,0,0,12.846,31.036A43.915,43.915,0,0,0,452.934,115.484Zm-31.036-7.1a23.973,23.973,0,0,1-23.936-23.935,23.936,23.936,0,1,1,40.85,16.914A23.054,23.054,0,0,1,421.9,108.383ZM539.22,60.513L523.263,40.566H507.306A31.871,31.871,0,0,0,475.392,72.48V96.416a31.872,31.872,0,0,0,31.914,31.914h51.86q3.989,0,3.989-3.99V20.62q0-3.989-3.989-3.989H547.2q-3.991,0-3.99,3.989v87.763h-35.9a11.986,11.986,0,0,1-11.968-11.967V72.48a11.986,11.986,0,0,1,11.968-11.968H539.22Zm53.39-9.8c0-2.659-1.7-5.447-4.357-5.447H577.359c-2.66,0-4.357,2.788-4.357,5.447v20.7c0,23.607-.234,52.928-0.234,52.928q0,3.992,3.989,3.99h11.968q3.989,0,3.989-3.99V63.477C592.714,52.55,592.61,50.715,592.61,50.715Zm0.1-30.095q0-3.989-3.989-3.989H576.757q-3.99,0-3.989,3.989V32.588q0,3.99,3.989,3.989h11.968q3.989,0,3.989-3.989V20.62Zm84.531,94.864A42.286,42.286,0,0,0,690.09,84.448a42.288,42.288,0,0,0-12.845-31.036,43.917,43.917,0,0,0-62.073,0,42.285,42.285,0,0,0-12.845,31.036,42.282,42.282,0,0,0,12.845,31.036A43.916,43.916,0,0,0,677.245,115.484Zm-31.037-7.1a23.971,23.971,0,0,1-23.935-23.935,23.936,23.936,0,1,1,40.85,16.914A23.056,23.056,0,0,1,646.208,108.383Zm57.484-67.817q-3.992,0-3.989,3.989V124.34q0,3.992,3.989,3.99H715.66q3.989,0,3.989-3.99V60.513h35.9A11.986,11.986,0,0,1,767.52,72.48v51.86q0,3.992,3.989,3.99h11.968q3.989,0,3.989-3.99V72.48a31.871,31.871,0,0,0-31.914-31.914h-51.86Z"/>
  <path class="cls-3" d="M576.913,14.767H588.7a5,5,0,0,1,5,5V32.643a5,5,0,0,1-5,5H576.913a5,5,0,0,1-5-5V19.767A5,5,0,0,1,576.913,14.767Z"/>
</svg>
